<?xml version="1.0" standalone="no"?>
<!DOCTYPE svg PUBLIC "-//W3C//DTD SVG 20010904//EN"
 "http://www.w3.org/TR/2001/REC-SVG-20010904/DTD/svg10.dtd">
<svg version="1.0" xmlns="http://www.w3.org/2000/svg"
 width="512.000000pt" height="512.000000pt" viewBox="0 0 512.000000 512.000000"
 preserveAspectRatio="xMidYMid meet">
<metadata>
Created by potrace 1.11, written by Peter Selinger 2001-2013
</metadata>
<g transform="translate(0.000000,512.000000) scale(0.100000,-0.100000)"
fill="#000000" stroke="none">
<path d="M0 2560 l0 -2560 2560 0 2560 0 0 2560 0 2560 -2560 0 -2560 0 0
-2560z m2923 2321 c405 -71 728 -209 1050 -449 100 -74 315 -280 393 -376 l40
-49 79 57 c62 43 82 53 91 43 13 -13 294 -482 294 -490 0 -2 -188 -94 -417
-203 -229 -110 -667 -319 -972 -465 l-556 -266 -7 -60 c-16 -144 -101 -244
-239 -279 -105 -27 -207 1 -287 79 -78 75 -109 173 -90 277 13 71 37 116 90
167 105 102 272 119 387 40 l35 -24 200 140 c111 77 203 142 206 145 9 8 -147
147 -203 181 -74 43 -159 77 -259 103 -108 27 -325 22 -432 -11 -408 -122
-674 -518 -626 -930 48 -410 357 -720 768 -771 108 -14 195 -6 337 30 260 67
480 189 669 369 74 71 74 70 14 -44 -106 -201 -308 -381 -523 -467 -150 -60
-272 -81 -433 -75 -166 5 -291 35 -427 101 -280 137 -477 375 -562 682 -26 91
-28 113 -27 269 1 183 12 245 70 392 131 334 443 585 803 648 330 58 682 -56
926 -300 l64 -63 195 136 c107 76 195 141 196 146 0 6 -57 67 -127 136 -228
225 -465 353 -783 422 -89 19 -136 22 -310 23 -179 0 -218 -3 -309 -23 -319
-72 -583 -221 -811 -458 -199 -208 -331 -462 -396 -764 -29 -131 -27 -478 3
-612 102 -450 369 -816 758 -1036 153 -87 315 -144 520 -183 102 -20 375 -17
500 5 358 64 706 261 1000 567 191 199 331 423 432 694 l34 90 -6 -55 c-26
-242 -150 -559 -301 -770 -82 -115 -240 -280 -349 -365 -458 -358 -1062 -461
-1625 -279 -41 13 -142 58 -225 99 -851 424 -1198 1465 -773 2320 271 545 793
899 1410 956 545 50 1099 -175 1459 -593 l58 -67 158 111 c87 61 160 112 162
114 8 7 -111 143 -188 217 -307 293 -683 489 -1101 573 -113 22 -170 27 -348
32 -228 5 -324 -3 -515 -43 -362 -75 -723 -261 -1003 -516 -384 -351 -624
-814 -690 -1332 -20 -161 -15 -481 11 -622 180 -1000 973 -1722 1980 -1806
457 -38 965 95 1347 352 120 81 371 283 477 384 351 336 593 811 665 1307 l14
93 1 -77 c2 -164 -44 -421 -114 -633 -254 -773 -873 -1349 -1665 -1550 -546
-138 -1164 -62 -1670 207 -218 116 -379 235 -560 417 -429 430 -664 970 -687
1576 -40 1074 666 2047 1701 2344 239 68 423 91 696 86 149 -2 237 -9 323 -24z"/>
</g>
</svg>
